<svg width="2160" height="626" xmlns="http://www.w3.org/2000/svg" xmlns:xlink="http://www.w3.org/1999/xlink" xml:space="preserve" overflow="hidden"><defs><clipPath id="clip0"><rect x="315" y="1317" width="2160" height="626"/></clipPath></defs><g clip-path="url(#clip0)" transform="translate(-315 -1317)"><path d="M320 1383 2343 1383 2343 1317 2475 1449 2343 1581 2343 1515 320 1515Z" fill="#7F7F7F" fill-rule="evenodd"/><text fill="#FFFFFF" font-family="Yu Gothic Medium,Yu Gothic Medium_MSFontService,sans-serif" font-weight="500" font-size="83" transform="matrix(1 0 0 1 1199.26 1475)">塩基配列</text><rect x="320" y="1607" width="667" height="51.9999" fill="#E7D2BB"/><rect x="684" y="1691" width="667" height="52.0002" fill="#E7D2BB"/><rect x="1017" y="1607" width="667" height="51.9999" fill="#E7D2BB"/><rect x="1382" y="1691" width="666" height="52.0002" fill="#E7D2BB"/><rect x="1715" y="1607" width="667" height="51.9999" fill="#E7D2BB"/><path d="M682.5 1739.5C682.5 1753.86 681.53 1765.5 680.333 1765.5L320.667 1765.5C319.47 1765.5 318.5 1753.86 318.5 1739.5" stroke="#404040" stroke-width="6.875" stroke-miterlimit="8" fill="none" fill-rule="evenodd"/><path d="M1351.5 1781.5C1351.5 1795.86 1350.53 1807.5 1349.33 1807.5L686.666 1807.5C685.47 1807.5 684.5 1795.86 684.5 1781.5" stroke="#404040" stroke-width="6.875" stroke-miterlimit="8" fill="none" fill-rule="evenodd"/><text fill="#404040" font-family="Consolas,Consolas_MSFontService,sans-serif" font-weight="400" font-size="73" transform="matrix(1 0 0 1 936.014 1879)">size</text><text fill="#404040" font-family="Consolas,Consolas_MSFontService,sans-serif" font-weight="400" font-size="73" transform="matrix(1 0 0 1 419.079 1844)">step</text></g></svg>